HIERARCHY
ROOT Hips
{
	OFFSET 0.00000 0.00000 0.00000
	CHANNELS 6 Xposition Yposition Zposition Zrotation Yrotation Xrotation 
	JOINT LHipJoint
	{
		OFFSET 0 0 0
		CHANNELS 3 Zrotation Yrotation Xrotation
		JOINT LeftUpLeg
		{
			OFFSET 1.30186 -1.90722 0.65024
			CHANNELS 3 Zrotation Yrotation Xrotation
			JOINT LeftLeg
			{
				OFFSET 2.56413 -7.04489 0.00000
				CHANNELS 3 Zrotation Yrotation Xrotation
				JOINT LeftFoot
				{
					OFFSET 2.79321 -7.67428 0.00000
					CHANNELS 3 Zrotation Yrotation Xrotation
					JOINT LeftToeBase
					{
						OFFSET 0.15723 -0.43198 2.08537
						CHANNELS 3 Zrotation Yrotation Xrotation
						End Site
						{
							OFFSET 0.00000 -0.00000 1.07411
						}
					}
				}
			}
		}
	}
	JOINT RHipJoint
	{
		OFFSET 0 0 0
		CHANNELS 3 Zrotation Yrotation Xrotation
		JOINT RightUpLeg
		{
			OFFSET -1.28627 -1.90723 0.65024
			CHANNELS 3 Zrotation Yrotation Xrotation
			JOINT RightLeg
			{
				OFFSET -2.56567 -7.04913 0.00000
				CHANNELS 3 Zrotation Yrotation Xrotation
				JOINT RightFoot
				{
					OFFSET -2.75597 -7.57198 0.00000
					CHANNELS 3 Zrotation Yrotation Xrotation
					JOINT RightToeBase
					{
						OFFSET -0.17500 -0.48081 2.22901
						CHANNELS 3 Zrotation Yrotation Xrotation
						End Site
						{
							OFFSET -0.00000 -0.00000 1.14762
						}
					}
				}
			}
		}
	}
	JOINT LowerBack
	{
		OFFSET 0 0 0
		CHANNELS 3 Zrotation Yrotation Xrotation
		JOINT Spine
		{
			OFFSET -0.04522 2.07467 -0.16566
			CHANNELS 3 Zrotation Yrotation Xrotation
			JOINT Spine1
			{
				OFFSET -0.01178 2.08825 -0.05393
				CHANNELS 3 Zrotation Yrotation Xrotation
				JOINT Neck
				{
					OFFSET 0 0 0
					CHANNELS 3 Zrotation Yrotation Xrotation
					JOINT Neck1
					{
						OFFSET -0.05182 1.80489 0.16014
						CHANNELS 3 Zrotation Yrotation Xrotation
						JOINT Head
						{
							OFFSET 0.14739 1.78840 -0.33342
							CHANNELS 3 Zrotation Yrotation Xrotation
							End Site
							{
								OFFSET 0.04364 1.83899 -0.13460
							}
						}
					}
				}
				JOINT LeftShoulder
				{
					OFFSET 0 0 0
					CHANNELS 3 Zrotation Yrotation Xrotation
					JOINT LeftArm
					{
						OFFSET 3.01264 1.29090 -0.06579
						CHANNELS 3 Zrotation Yrotation Xrotation
						JOINT LeftForeArm
						{
							OFFSET 5.55680 -0.00000 0.00000
							CHANNELS 3 Zrotation Yrotation Xrotation
							JOINT LeftHand
							{
								OFFSET 3.63979 -0.00000 -0.00000
								CHANNELS 3 Zrotation Yrotation Xrotation
								JOINT LeftFingerBase
								{
									OFFSET 0 0 0
									CHANNELS 3 Zrotation Yrotation Xrotation
									JOINT LeftHandIndex1
									{
										OFFSET 0.56942 -0.00000 -0.00000
										CHANNELS 3 Zrotation Yrotation Xrotation
										End Site
										{
											OFFSET 0.45908 -0.00000 -0.00000
										}
									}
								}
								JOINT LThumb
								{
									OFFSET 0 0 0
									CHANNELS 3 Zrotation Yrotation Xrotation
									End Site
									{
										OFFSET 0.46609 -0.00000 0.46609
									}
								}
							}
						}
					}
				}
				JOINT RightShoulder
				{
					OFFSET 0 0 0
					CHANNELS 3 Zrotation Yrotation Xrotation
					JOINT RightArm
					{
						OFFSET -3.15796 1.37283 -0.36748
						CHANNELS 3 Zrotation Yrotation Xrotation
						JOINT RightForeArm
						{
							OFFSET -5.34339 -0.00000 0.00000
							CHANNELS 3 Zrotation Yrotation Xrotation
							JOINT RightHand
							{
								OFFSET -3.65101 -0.00000 -0.00000
								CHANNELS 3 Zrotation Yrotation Xrotation
								JOINT RightFingerBase
								{
									OFFSET 0 0 0
									CHANNELS 3 Zrotation Yrotation Xrotation
									JOINT RightHandIndex1
									{
										OFFSET -0.69425 -0.00000 -0.00000
										CHANNELS 3 Zrotation Yrotation Xrotation
										End Site
										{
											OFFSET -0.55972 -0.00000 -0.00000
										}
									}
								}
								JOINT RThumb
								{
									OFFSET 0 0 0
									CHANNELS 3 Zrotation Yrotation Xrotation
									End Site
									{
										OFFSET -0.56827 -0.00000 0.56827
									}
								}
							}
						}
					}
				}
			}
		}
	}
}
MOTION
Frames: 10
Frame Time: .0083333
8.7481 18.2426 -15.6119 0 0 0 0 0 0 -21 0 0 0 0 0 0 0 0 0 0 0 0 0 0 21 0 0 0 0 0 0 0 0 0 0 0 0 0 0 0 0 0 0 0 0 0 0 -16 0 0 21 0 0 11 0 0 0 -8 0 0 0 0 0 0 0 0 0 0 0 0 0 0 0 0 0 0 0 0 8 0 0 0 0 0 0 0 0 0 0 0 0 0 0 0 0 0
8.7481 18.2426 -15.6119 1.7183 40.3415 4.4507 0.0000 0.0000 0.0000 -16.4063 -12.7696 1.4543 0.4811 4.4479 12.3403 0.4981 -2.4477 -12.7152 0.6584 -5.1897 -14.4503 0.0000 0.0000 0.0000 13.4772 17.3808 -2.6678 -1.0673 -6.5679 18.4413 -0.3951 -6.9038 -16.3763 -0.7027 -5.3581 14.9329 -6.4221 -0.7309 -3.7460 -0.9741 -0.7103 -1.1634 2.5637 -0.3514 0.9673 -15.9937 -16.2191 -1.5558 16.8328 -25.1781 21.8519 5.2105 -11.6831 11.6789 -0.0000 0.0000 0.0000 -0.0000 0.0000 -0.0000 -0.0000 0.0000 -0.0000 -0.0000 -0.0000 0.0000 -0.0000 -0.0000 0.0000 -0.0000 0.0000 0.0000 0.0000 0.0000 0.0000 -0.0000 0.0000 0.0000 86.0923 -4.9118 -3.6888 -12.4148 20.4238 -2.2449 0.0000 0.0000 14.7906 -10.7650 29.0791 -5.2794 7.1250 -0.0000 -0.0000 11.6331 -0.9930 11.6743
8.7480 18.2425 -15.6059 1.7811 40.4222 4.4357 0.0000 0.0000 0.0000 -16.4572 -12.8132 1.6048 0.4731 4.4112 12.2366 0.4989 -2.4988 -12.7172 0.6222 -5.0479 -14.0453 0.0000 0.0000 0.0000 13.4452 17.1809 -2.6760 -1.0780 -6.5997 18.5347 -0.4120 -6.7141 -16.4197 -0.6936 -5.3238 14.8345 -6.4796 -0.6395 -3.6701 -1.0748 -0.5902 -1.1486 2.4982 -0.2904 0.9286 -15.8783 -16.2931 -1.3886 17.0027 -25.3271 21.6780 5.2381 -11.7455 11.6209 0.0000 -0.0000 0.0000 -0.0000 0.0000 -0.0000 -0.0000 0.0000 -0.0000 -0.0000 -0.0000 0.0000 -0.0000 -0.0000 0.0000 -0.0000 0.0000 0.0000 0.0000 0.0000 0.0000 0.0000 -0.0000 0.0000 86.0860 -4.7580 -3.5267 -12.6661 20.7960 -2.3334 0.0000 0.0000 14.1678 -10.1740 28.5481 -4.9019 7.1250 -0.0000 -0.0000 11.9480 -1.5907 11.8751
8.7494 18.2406 -15.6014 2.0318 40.4814 4.5307 0.0000 0.0000 0.0000 -16.6766 -12.7996 1.7398 0.4683 4.3890 12.1737 0.5053 -2.5739 -12.7902 0.5655 -4.8165 -13.3858 0.0000 0.0000 0.0000 13.2458 16.9007 -2.6580 -1.0837 -6.6163 18.5835 -0.4237 -6.5105 -16.3877 -0.6466 -5.1439 14.3195 -6.6819 -0.6420 -3.5978 -1.1365 -0.5877 -1.0752 2.5478 -0.2918 0.9648 -15.8953 -16.2939 -1.4760 17.1811 -25.3533 21.6018 5.2896 -11.7412 11.6463 0.0000 -0.0000 0.0000 -0.0000 0.0000 -0.0000 -0.0000 0.0000 -0.0000 -0.0000 -0.0000 0.0000 -0.0000 -0.0000 0.0000 -0.0000 0.0000 0.0000 0.0000 0.0000 0.0000 0.0000 -0.0000 0.0000 85.7556 -4.3188 -2.9712 -12.6972 20.8420 -2.3445 0.0000 0.0000 13.5989 -10.5788 28.5055 -5.0933 7.1250 -0.0000 -0.0000 11.7096 -1.5811 11.6296
8.7561 18.2377 -15.5997 2.3724 40.4834 4.7108 0.0000 0.0000 0.0000 -17.0202 -12.8408 1.9087 0.4596 4.3489 12.0603 0.5095 -2.4609 -12.8623 0.5074 -4.5662 -12.6752 0.0000 0.0000 0.0000 12.9163 16.5366 -2.7538 -1.0923 -6.6419 18.6586 -0.4403 -6.1966 -16.3278 -0.5776 -4.8668 13.5289 -6.8899 -0.6532 -3.6239 -1.2230 -0.5873 -0.9975 2.5739 -0.2962 1.0606 -15.8844 -16.2840 -1.5452 17.2944 -25.3584 21.5754 5.3213 -11.7298 11.6682 -0.0000 0.0000 0.0000 -0.0000 0.0000 -0.0000 -0.0000 0.0000 -0.0000 -0.0000 -0.0000 0.0000 -0.0000 -0.0000 0.0000 -0.0000 0.0000 0.0000 0.0000 0.0000 0.0000 -0.0000 0.0000 0.0000 85.3825 -3.6923 -3.1739 -12.5079 20.5620 -2.2775 0.0000 0.0000 14.0228 -11.1334 29.7810 -5.5828 7.1250 -0.0000 -0.0000 11.4628 -0.2536 11.6478
8.7606 18.2356 -15.5959 2.4877 40.4666 4.8121 0.0000 0.0000 0.0000 -17.1599 -13.0321 2.0481 0.4506 4.3065 11.9405 0.5122 -2.2236 -12.9367 0.4798 -4.4421 -12.3240 0.0000 0.0000 0.0000 12.7983 16.4426 -2.8431 -1.1003 -6.6653 18.7276 -0.4493 -6.1120 -16.3688 -0.5340 -4.6824 13.0048 -6.9478 -0.5976 -3.6979 -1.2958 -0.5024 -0.9858 2.5345 -0.2552 1.1060 -15.8147 -16.3221 -1.4888 17.3619 -25.4390 21.5541 5.3243 -11.7597 11.6667 0.0000 -0.0000 0.0000 -0.0000 0.0000 -0.0000 -0.0000 0.0000 -0.0000 -0.0000 -0.0000 0.0000 -0.0000 -0.0000 0.0000 -0.0000 0.0000 0.0000 0.0000 0.0000 0.0000 0.0000 -0.0000 0.0000 85.1559 -3.2098 -3.4840 -12.3848 20.3793 -2.2345 0.0000 0.0000 14.2519 -11.2942 30.7149 -5.8245 7.1250 -0.0000 -0.0000 11.4333 0.6868 11.8060
8.7599 18.2338 -15.5925 2.5596 40.3737 4.8605 0.0000 0.0000 0.0000 -17.2487 -13.1895 2.1728 0.4466 4.2875 11.8870 0.5119 -2.0064 -12.9724 0.5298 -4.6644 -12.9538 0.0000 0.0000 0.0000 12.7478 16.5950 -2.8259 -1.1046 -6.6778 18.7643 -0.4507 -6.1755 -16.4384 -0.5814 -4.8824 13.5733 -7.0480 -0.5522 -3.7092 -1.2903 -0.4360 -0.9571 2.5990 -0.2239 1.1364 -15.8835 -16.3372 -1.4618 17.4441 -25.4644 21.4657 5.3580 -11.7750 11.6569 0.0000 0.0000 0.0000 -0.0000 0.0000 -0.0000 -0.0000 0.0000 -0.0000 -0.0000 -0.0000 0.0000 -0.0000 -0.0000 0.0000 -0.0000 0.0000 0.0000 0.0000 0.0000 0.0000 0.0000 0.0000 0.0000 84.7194 -2.7834 -2.7710 -12.3638 20.3480 -2.2272 0.0000 0.0000 13.6322 -11.9858 30.9575 -6.2324 7.1250 -0.0000 -0.0000 11.0572 1.0239 11.4672
8.7627 18.2361 -15.5900 2.5760 40.2933 4.8166 0.0000 0.0000 0.0000 -17.2835 -13.0646 2.2662 0.4424 4.2676 11.8307 0.5061 -1.9700 -12.9033 0.5774 -4.8659 -13.5265 0.0000 0.0000 0.0000 12.7463 16.7078 -2.7344 -1.1102 -6.6941 18.8122 -0.4613 -6.1645 -16.5593 -0.6406 -5.1206 14.2528 -7.0510 -0.5250 -3.6860 -1.2685 -0.3994 -0.8969 2.6249 -0.2088 1.1823 -16.0384 -16.3418 -1.6610 17.4670 -25.4685 21.5838 5.3679 -11.7676 11.7693 0.0000 -0.0000 0.0000 -0.0000 0.0000 -0.0000 -0.0000 0.0000 -0.0000 -0.0000 -0.0000 0.0000 -0.0000 -0.0000 0.0000 -0.0000 0.0000 0.0000 0.0000 0.0000 0.0000 0.0000 -0.0000 0.0000 84.2589 -2.3356 -2.3826 -12.4030 20.4062 -2.2408 0.0000 0.0000 13.9144 -13.3115 31.8036 -7.1076 7.1250 -0.0000 -0.0000 10.3760 2.0577 10.9201
8.7661 18.2373 -15.5868 2.4308 40.2970 4.7026 0.0000 0.0000 0.0000 -17.1456 -12.8326 2.1541 0.4496 4.3017 11.9270 0.5076 -2.1133 -12.8970 0.5842 -4.8942 -13.6069 0.0000 0.0000 0.0000 12.8632 16.4615 -2.7736 -1.1061 -6.6821 18.7769 -0.4618 -6.0210 -16.4483 -0.5364 -4.6929 13.0346 -6.9078 -0.4486 -3.6642 -1.2876 -0.3062 -0.9205 2.5299 -0.1600 1.1358 -16.0420 -16.3953 -1.7328 17.4065 -25.5681 21.8221 5.3214 -11.8016 11.8872 0.0000 0.0000 0.0000 -0.0000 0.0000 -0.0000 -0.0000 0.0000 -0.0000 -0.0000 -0.0000 0.0000 -0.0000 -0.0000 0.0000 -0.0000 0.0000 0.0000 0.0000 0.0000 0.0000 0.0000 0.0000 0.0000 84.0519 -2.0810 -2.6837 -12.5431 20.6142 -2.2899 0.0000 0.0000 14.6697 -14.0182 32.9145 -7.7259 7.1250 -0.0000 -0.0000 10.0852 3.2684 10.8088
8.7651 18.2343 -15.5831 2.4282 40.2751 4.7108 0.0000 0.0000 0.0000 -17.1293 -12.7991 1.9194 0.4763 4.4262 12.2789 0.5233 -2.2458 -13.0770 0.5807 -4.8797 -13.5659 0.0000 0.0000 0.0000 12.8608 16.2204 -2.7954 -1.0848 -6.6196 18.5933 -0.4495 -5.9002 -16.1969 -0.4641 -4.3699 12.1197 -6.9584 -0.3837 -3.6552 -1.2967 -0.2207 -0.9700 2.5529 -0.1142 1.0716 -15.6377 -16.4715 -1.6325 17.0039 -25.6074 21.8395 5.1267 -11.8274 11.7511 0.0000 -0.0000 0.0000 -0.0000 0.0000 -0.0000 -0.0000 0.0000 -0.0000 -0.0000 -0.0000 0.0000 -0.0000 -0.0000 0.0000 -0.0000 0.0000 0.0000 0.0000 0.0000 0.0000 0.0000 -0.0000 0.0000 83.7110 -1.8619 -2.3580 -12.7367 20.9002 -2.3585 0.0000 0.0000 14.3999 -14.1365 33.3733 -7.8879 7.1250 -0.0000 -0.0000 10.0663 3.7412 10.8663
